<?xml version="1.0" encoding="UTF-8" standalone="no"?>
<!-- Created with Inkscape (http://www.inkscape.org/) -->

<svg
   width="58.830002mm"
   height="58.792999mm"
   viewBox="0 0 58.830002 58.792999"
   version="1.1"
   id="svg1"
   xml:space="preserve"
   sodipodi:docname="chazky_logo.svg"
   inkscape:version="1.3.2 (091e20e, 2023-11-25, custom)"
   xmlns:inkscape="http://www.inkscape.org/namespaces/inkscape"
   xmlns:sodipodi="http://sodipodi.sourceforge.net/DTD/sodipodi-0.dtd"
   xmlns:xlink="http://www.w3.org/1999/xlink"
   xmlns="http://www.w3.org/2000/svg"
   xmlns:svg="http://www.w3.org/2000/svg"><sodipodi:namedview
     id="namedview1"
     pagecolor="#ffffff"
     bordercolor="#000000"
     borderopacity="0.25"
     inkscape:showpageshadow="2"
     inkscape:pageopacity="0.0"
     inkscape:pagecheckerboard="0"
     inkscape:deskcolor="#d1d1d1"
     inkscape:document-units="mm"
     inkscape:zoom="1.8473536"
     inkscape:cx="86.610382"
     inkscape:cy="185.40035"
     inkscape:window-width="1920"
     inkscape:window-height="1017"
     inkscape:window-x="-8"
     inkscape:window-y="-8"
     inkscape:window-maximized="1"
     inkscape:current-layer="layer1" /><defs
     id="defs1"><linearGradient
       id="linearGradient16"><stop
         style="stop-color:#8f6322;stop-opacity:1;"
         offset="0.01121497"
         id="stop18" /><stop
         style="stop-color:#d9a73c;stop-opacity:0.64229763;"
         offset="0.4981643"
         id="stop17" /><stop
         style="stop-color:#b8852b;stop-opacity:0.81960785;"
         offset="0.68724751"
         id="stop19" /><stop
         style="stop-color:#8f6322;stop-opacity:1;"
         offset="1"
         id="stop16" /></linearGradient><linearGradient
       xlink:href="#linearGradient16"
       id="linearGradient19"
       x1="-29.249681"
       y1="92.749985"
       x2="32.9743"
       y2="92.749985"
       gradientUnits="userSpaceOnUse"
       spreadMethod="repeat" /><clipPath
       clipPathUnits="userSpaceOnUse"
       id="clipPath23"><ellipse
         style="fill:#daac57;fill-opacity:1;fill-rule:nonzero;stroke-width:0.247118;stroke-dasharray:none"
         id="ellipse23"
         cx="56.585541"
         cy="73.772133"
         rx="27.64945"
         ry="28.170921"
         transform="matrix(0.8151065,0.57931113,-0.58467195,0.81126981,0,0)" /></clipPath></defs><g
     id="layer1"
     transform="translate(-29.597698,-43.877978)"><rect
       style="display:inline;fill:url(#linearGradient19);fill-rule:nonzero;stroke-width:0.196817;stroke-dasharray:none"
       id="rect1"
       width="62.223984"
       height="75.450813"
       x="-29.249681"
       y="55.024574"
       transform="matrix(0.86309203,-0.60452726,0.62201957,0.85058627,-1.1861,-3.7071181)"
       clip-path="url(#clipPath23)" /><path
       style="fill:#000000"
       d="m 56.118895,101.05955 c -8.49679,-0.86249 -16.5355,-5.973737 -21.002545,-13.354017 -2.23778,-3.69718 -3.418917,-7.27606 -3.878114,-11.75082 -0.841895,-8.20406 2.128953,-16.43613 8.078819,-22.38599 12.26431,-12.26432 32.454777,-10.52452 42.583137,3.66936 6.46933,9.06612 6.718,21.63784 0.61392,31.03849 -5.02476,7.73844 -12.95888,12.341777 -22.161887,12.858207 -1.23693,0.0694 -3.14193,0.0356 -4.23333,-0.0752 z m 6.26331,-1.078743 c 2.0764,-0.28881 3.460585,-0.74595 2.30913,-0.76261 -0.95717,-0.0139 -7.28339,-3.372734 -9.49849,-5.043174 -1.54252,-1.16323 -2.2602,-1.55195 -2.64583,-1.43304 -2.32252,0.71612 -4.87616,1.18037 -7.35581,1.33728 l -2.92399,0.18502 0.77428,0.62756 c 1.48436,1.20309 4.76182,2.94039 7.12526,3.77694 4.02225,1.423667 8.19241,1.871577 12.21545,1.312024 z m 7.022197,-1.849444 c 0.76938,-0.30229 2.02129,-0.90482 2.78203,-1.33896 l 1.38317,-0.78935 -0.76131,-1.42666 c -0.41872,-0.78466 -0.84235,-2.01592 -0.94141,-2.73613 l -0.18009,-1.30947 -1.70486,-0.32169 c -1.78207,-0.33625 -4.638922,-1.57963 -6.795497,-2.95759 -0.69676,-0.44519 -1.23254,-0.83173 -1.19062,-0.85897 0.0419,-0.0272 1.0287,0.0276 2.19287,0.12192 2.799445,0.22673 6.808447,-0.14186 9.044107,-0.83153 1.85884,-0.57343 4.69836,-1.89401 4.95081,-2.3025 0.0786,-0.12712 -0.7144,-2.16048 -1.76216,-4.51857 -1.69504,-3.81489 -1.96383,-4.26893 -2.43868,-4.1195 -1.34574,0.42352 -4.58218,0.44351 -5.98011,0.0369 -1.786612,-0.51961 -2.608382,-1.07896 -2.197802,-1.49595 0.21701,-0.22041 0.71349,-0.15626 1.90988,0.24677 0.889152,0.29953 2.185932,0.54394 2.881752,0.54313 1.44928,-0.002 3.24949,-0.43938 3.24949,-0.79005 0,-0.13062 -0.41204,-1.14165 -0.91564,-2.24674 l -0.91565,-2.00924 0.8495,-0.51797 c 0.46722,-0.28488 0.99833,-0.51841 1.18023,-0.51895 0.1819,-5.5e-4 0.33073,-0.0928 0.33073,-0.20495 0,-0.40655 -4.65225,-4.82312 -5.0805,-4.82312 -0.24189,0 -2.263602,0.49148 -4.492677,1.09219 -2.22907,0.6007 -4.76724,1.27208 -5.64036,1.49194 -0.87313,0.21985 -1.66763,0.47251 -1.76556,0.56145 -0.0979,0.0889 -0.0167,1.38994 0.18054,2.89111 0.52276,3.97906 1.01465,12.74875 0.8569,15.27736 -0.17172,2.7524 -0.99582,4.64446 -2.81553,6.46417 l -1.32741,1.3274 2.03865,1.43834 c 2.62446,1.85163 6.0114,3.63533 8.52095,4.48745 2.420985,0.822064 2.784525,0.833054 4.554257,0.13772 z m -6.670927,-30.85612 c -0.06022,-0.400377 -0.383065,-0.274955 1.83285,-0.98222 2.438823,-0.778412 2.224613,-0.611719 2.400475,0.10563 0.04892,0.199551 -0.563632,0.286037 -3.505725,1.20568 -0.591866,0.185006 -0.647663,0.202412 -0.7276,-0.32909 z m 14.293797,25.92771 c 2.1448,-2.01767 2.16122,-2.04301 1.61188,-2.48784 -0.52217,-0.42282 -3.64104,-1.80029 -5.02535,-2.21947 l -0.62904,-0.19048 0.12935,2.34363 c 0.10026,1.81683 0.2714,2.59592 0.76133,3.46594 0.34759,0.61726 0.71141,1.12328 0.80847,1.12448 0.0971,10e-4 1.15158,-0.91512 2.34336,-2.03626 z m 4.26259,-4.85806 c 1.93249,-2.80712 3.47723,-6.52513 4.22503,-10.16912 0.17918,-0.87313 0.32087,-3.19485 0.31487,-5.15938 -0.009,-3.01136 -0.12124,-3.98224 -0.71401,-6.18693 -1.35372,-5.03489 -3.65411,-9.02574 -7.26941,-12.61143 -4.51619,-4.4792 -9.67096,-6.95667 -16.006847,-7.69316 -7.82713,-0.90984 -15.53396,1.76018 -21.41042,7.41761 -4.64968,4.47637 -7.387703,10.0356 -8.140433,16.52818 -0.280073,2.41573 -0.118411,6.65982 0.278117,7.30141 0.38025,0.61526 12.526396,-1.89205 13.519516,-2.7908 0.67757,-0.6132 0.66291,-1.99379 -0.0681,-6.415 -0.50184,-3.0351 -0.54289,-3.80038 -0.29582,-5.51536 0.99085,-6.87782 7.45387,-11.77274 14.17132,-10.73298 4.5398,0.7027 8.740087,4.25272 9.991137,8.44438 0.25811,0.86478 1.02091,1.78986 3.48193,4.22268 l 3.15141,3.11531 -1.45473,0.73559 -1.45472,0.7356 1.08768,2.45005 c 0.59822,1.34753 2.00684,4.53128 3.13026,7.07498 l 2.04258,4.62493 -0.82881,0.62912 c -1.10113,0.83585 -3.79074,2.11953 -4.8637,2.32132 -0.47294,0.089 -0.8599,0.24579 -0.8599,0.34855 0,0.10275 0.62508,0.38488 1.38907,0.62695 0.76398,0.24208 2.2225,0.84973 3.24114,1.35033 1.01865,0.50059 1.96479,0.88202 2.10254,0.84761 0.13774,-0.0344 0.69588,-0.70961 1.24031,-1.50044 z M 53.340765,65.905583 c 10.08108,-2.68711 15.073737,-4.08421 15.304497,-4.28266 0.12279,-0.10559 -0.0122,-0.7243 -0.30001,-1.37491 l -0.523262,-1.18292 -2.34582,0.60276 c -1.290205,0.33152 -4.072225,1.07198 -6.182275,1.64547 -2.11006,0.57349 -5.77105,1.56605 -8.13553,2.2057 l -4.29908,1.163 -4e-4,1.38906 c -2.8e-4,0.93588 0.10749,1.38857 0.33032,1.38755 0.1819,-8.3e-4 2.9501,-0.6997 6.15156,-1.55305 z"
       id="path1" /></g></svg>
